Plot: In some cases, trying to do justice to a subject is more difficult than simply letting it speak for itself. That was the thinking of director Nelson Pereira dos Santos behind this documentary of Tom Jobim, which he worked on with Dora, the grandaughter of the Brazilian music legend who helped create the bossa nova sound. Without the use of any words at all, they've put the music centre stage, with images of classic performances from various artists and footage of Tom himself to mark the passing stages of his career. It's as good a way as any to communicate the majesty of the music itself both to newcomers to his sound and lifelong fans, with no further explanation needed.

Sinopse: Documentário sobre um dos maiores nomes da música brasileira, Antônio Carlos Jobim. Dirigido por Nelson Pereira dos Santos e por Dora Jobim, o filme mostra a trajetória musical do compositor de clássicos como "Garota de Ipanema", "Chega de Saudade" e "Águas de Março". Abordará a parceria com Vinicius de Moraes e a influência da música clássica em sua obra.

Audio: Português / Portuguese (no dialogues, only music)

No Subtitles (NOT NECESSARY) / Sem Legendas

IMDB: http://www.imdb.com/title/tt2399493/


General
Complete name                    : A.Musica.Segundo.Tom.Jobim.2012.DVDRip.AC3. HORiZON-Brazilian
Format                           : AVI
Format/Info                      : Audio Video Interleave
File size                        : 1.37 GiB
Duration                         : 1h 24mn
Overall bit rate                 : 2 312 Kbps
Writing application              : FairUse Wizard - http://fairusewizard.com
Writing library                  : The best and REALLY easy backup tool

Video
ID                               : 0
Format                           : MPEG-4 Visual
Format profile                   : Advanced Simple@L5
Format settings, BVOP            : Yes
Format settings, QPel            : No
Format settings, GMC             : No warppoints
Format settings, Matrix          : Default (H.263)
Muxing mode                      : Packed bitstream
Codec ID                         : XVID
Codec ID/Hint                    : XviD
Duration                         : 1h 24mn
Bit rate                         : 2 110 Kbps
Width                            : 688 pixels
Height                           : 384 pixels
Display aspect ratio             : 16:9
Frame rate                       : 23.976 fps
Color space                      : YUV
Chroma subsampling               : 4:2:0
Bit depth                        : 8 bits
Scan type                        : Progressive
Compression mode                 : Lossy
Bits/(Pixel*Frame)               : 0.333
Stream size                      : 1.25 GiB (91%)
Writing library                  : XviD 1.1.0 (UTC 2005-11-22)

Audio
ID                               : 1
Format                           : AC-3
Format/Info                      : Audio Coding 3
Mode extension                   : CM (complete main)
Codec ID                         : 2000
Duration                         : 1h 24mn
Bit rate mode                    : Constant
Bit rate                         : 192 Kbps
Channel(s)                       : 2 channels
Channel positions                : Front: L R
Sampling rate                    : 48.0 KHz
Bit depth                        : 16 bits
Compression mode                 : Lossy
Stream size                      : 116 MiB (8%)
Alignment                        : Split accross interleaves
Interleave, duration             : 42 ms (1.00 video frame)
Interleave, preload duration     : 500 ms

	